<?xml version="1.0" encoding="utf-8"?>
<!-- Generator: Adobe Illustrator 16.0.0, SVG Export Plug-In . SVG Version: 6.00 Build 0)  -->
<!DOCTYPE svg PUBLIC "-//W3C//DTD SVG 1.1//EN" "http://www.w3.org/Graphics/SVG/1.1/DTD/svg11.dtd">
<svg version="1.1" id="Layer_1" xmlns="http://www.w3.org/2000/svg" xmlns:xlink="http://www.w3.org/1999/xlink" x="0px" y="0px"
	 width="595.279px" height="841.891px" viewBox="0 0 595.279 841.891" enable-background="new 0 0 595.279 841.891"
	 xml:space="preserve">
<g>
	<path id="XMLID_4_" fill="#FFFFFF" d="M81.334,455.895H58.435v-22.899c0-1.69-1.354-3.158-3.159-3.158h-8.912
		c-1.691,0-3.159,1.354-3.159,3.158v22.899h-22.9c-1.692,0-3.158,1.354-3.158,3.16v8.911c0,1.693,1.353,3.158,3.158,3.158h22.9v22.9
		c0,1.691,1.355,3.157,3.159,3.157h8.912c1.692,0,3.159-1.352,3.159-3.157v-22.9h22.899c1.691,0,3.159-1.353,3.159-3.158v-8.911
		C84.38,457.249,83.026,455.895,81.334,455.895z"/>
	<path fill="#FFFFFF" d="M43.158,410.77v-71.215H17.724v-14.501h68.117v14.501H60.466v71.215H43.158z"/>
	<path fill="#FFFFFF" d="M111.565,410.77v-85.716h36.428c9.161,0,15.815,0.77,19.968,2.309c4.15,1.54,7.474,4.279,9.968,8.215
		c2.495,3.937,3.742,8.439,3.742,13.507c0,6.432-1.891,11.743-5.672,15.934c-3.779,4.19-9.434,6.831-16.957,7.922
		c3.743,2.184,6.832,4.581,9.268,7.192c2.437,2.612,5.72,7.25,9.853,13.916l10.465,16.722h-20.697l-12.513-18.651
		c-4.444-6.666-7.484-10.866-9.122-12.6c-1.636-1.734-3.373-2.924-5.203-3.568c-1.833-0.642-4.737-0.965-8.713-0.965h-3.509v35.784
		H111.565z M128.872,361.304h12.805c8.304,0,13.489-0.35,15.553-1.052c2.066-0.702,3.684-1.909,4.853-3.625
		c1.171-1.715,1.755-3.86,1.755-6.432c0-2.885-0.77-5.213-2.308-6.987c-1.54-1.774-3.714-2.894-6.52-3.362
		c-1.403-0.195-5.614-0.291-12.63-0.291h-13.507V361.304z"/>
	<path fill="#FFFFFF" d="M291.415,410.77H272.59l-7.485-19.47h-34.263l-7.074,19.47h-18.361l33.386-85.716h18.301L291.415,410.77z
		 M259.551,376.857l-11.811-31.808l-11.577,31.808H259.551z"/>
	<path fill="#FFFFFF" d="M337.457,410.77l-30.638-85.716h18.77l21.689,63.439l20.992-63.439h18.36l-30.697,85.716H337.457z"/>
	<path fill="#FFFFFF" d="M412.445,410.77v-85.716h63.553v14.501h-46.245v19.001h43.032v14.443h-43.032v23.329h47.883v14.442H412.445
		z"/>
	<path fill="#FFFFFF" d="M513.185,410.77v-85.014h17.305v70.572h43.035v14.442H513.185z"/>
	<path fill="#FFFFFF" d="M95.024,497.182v-67.484h13.739v56.021h34.16v11.464H95.024z"/>
	<path fill="#FFFFFF" d="M163.705,497.182v-68.043h50.451v11.51H177.44v15.086h34.165V467.2H177.44v18.518h38.017v11.464H163.705z"
		/>
	<path fill="#FFFFFF" d="M253.319,497.182v-68.043h13.739v68.043H253.319z"/>
	<path fill="#FFFFFF" d="M303.134,475.042l13.368-1.299c0.805,4.487,2.437,7.782,4.897,9.887c2.459,2.103,5.778,3.157,9.954,3.157
		c4.425,0,7.759-0.935,10.002-2.809c2.244-1.872,3.363-4.062,3.363-6.569c0-1.609-0.471-2.976-1.412-4.106
		c-0.947-1.129-2.594-2.114-4.944-2.948c-1.607-0.555-5.276-1.547-11.002-2.971c-7.364-1.824-12.53-4.068-15.499-6.729
		c-4.177-3.745-6.269-8.309-6.269-13.692c0-3.466,0.983-6.71,2.948-9.723c1.966-3.018,4.796-5.315,8.491-6.893
		c3.701-1.576,8.166-2.366,13.394-2.366c8.541,0,14.968,1.868,19.286,5.613c4.314,3.744,6.583,8.743,6.798,14.992l-13.739,0.604
		c-0.587-3.495-1.848-6.012-3.781-7.541c-1.934-1.533-4.835-2.298-8.703-2.298c-3.993,0-7.117,0.819-9.376,2.461
		c-1.454,1.051-2.182,2.457-2.182,4.223c0,1.609,0.68,2.983,2.042,4.129c1.734,1.456,5.943,2.971,12.625,4.55
		c6.683,1.576,11.627,3.211,14.83,4.896c3.202,1.687,5.709,3.991,7.516,6.917c1.812,2.924,2.716,6.536,2.716,10.837
		c0,3.9-1.078,7.551-3.246,10.954c-2.167,3.403-5.229,5.933-9.189,7.591c-3.96,1.652-8.897,2.481-14.809,2.481
		c-8.6,0-15.206-1.988-19.816-5.965C306.786,488.446,304.031,482.654,303.134,475.042z"/>
	<path fill="#FFFFFF" d="M374.273,429.139h13.738v36.854c0,5.847,0.174,9.639,0.515,11.371c0.585,2.787,1.988,5.019,4.199,6.708
		c2.211,1.686,5.235,2.527,9.071,2.527c3.899,0,6.839-0.796,8.819-2.391c1.979-1.592,3.172-3.55,3.572-5.868
		c0.406-2.321,0.605-6.176,0.605-11.558v-37.644h13.738v35.741c0,8.168-0.37,13.938-1.114,17.312
		c-0.741,3.372-2.112,6.216-4.107,8.539c-1.997,2.319-4.664,4.168-8.007,5.546c-3.342,1.376-7.705,2.063-13.087,2.063
		c-6.5,0-11.427-0.748-14.783-2.25c-3.356-1.5-6.012-3.45-7.961-5.847c-1.948-2.398-3.233-4.913-3.85-7.544
		c-0.897-3.898-1.35-9.652-1.35-17.265V429.139z"/>
	<path fill="#FFFFFF" d="M441.421,497.182v-68.043h28.915c7.272,0,12.557,0.612,15.853,1.833c3.293,1.225,5.931,3.397,7.91,6.521
		c1.984,3.126,2.971,6.7,2.971,10.721c0,5.109-1.498,9.324-4.501,12.65c-2.998,3.327-7.486,5.42-13.458,6.289
		c2.97,1.731,5.42,3.635,7.354,5.709c1.938,2.074,4.543,5.755,7.824,11.044l8.307,13.275h-16.429l-9.933-14.807
		c-3.527-5.29-5.943-8.624-7.243-10.002c-1.301-1.375-2.677-2.319-4.129-2.831c-1.454-0.509-3.761-0.764-6.915-0.764h-2.786v28.403
		H441.421z M455.16,457.919h10.165c6.589,0,10.704-0.281,12.345-0.839c1.643-0.556,2.924-1.517,3.854-2.876
		c0.927-1.363,1.392-3.063,1.392-5.105c0-2.289-0.61-4.138-1.833-5.547c-1.222-1.408-2.945-2.297-5.174-2.67
		c-1.114-0.152-4.458-0.233-10.026-0.233H455.16V457.919z"/>
	<path fill="#FFFFFF" d="M516.741,497.182v-68.043h50.451v11.51h-36.712v15.086h34.159V467.2h-34.159v18.518h38.011v11.464H516.741z
		"/>
</g>
</svg>
