<?xml version="1.0" encoding="utf-8"?>
<!-- Generator: Adobe Illustrator 16.0.0, SVG Export Plug-In . SVG Version: 6.00 Build 0)  -->
<!DOCTYPE svg PUBLIC "-//W3C//DTD SVG 1.1//EN" "http://www.w3.org/Graphics/SVG/1.1/DTD/svg11.dtd">
<svg version="1.1" id="Layer_1" xmlns="http://www.w3.org/2000/svg" xmlns:xlink="http://www.w3.org/1999/xlink" x="0px" y="0px"
	 width="556.378px" height="173.335px" viewBox="17.147 325.054 556.378 173.335"
	 enable-background="new 17.147 325.054 556.378 173.335" xml:space="preserve">
<g>
	<path id="XMLID_4_" fill="#FFFFFF" d="M81.334,455.895H58.435v-22.898c0-1.69-1.354-3.158-3.159-3.158h-8.912
		c-1.691,0-3.159,1.354-3.159,3.158v22.898H20.305c-1.692,0-3.158,1.354-3.158,3.16v8.911c0,1.693,1.353,3.158,3.158,3.158h22.899
		v22.9c0,1.69,1.355,3.156,3.159,3.156h8.912c1.691,0,3.159-1.352,3.159-3.156v-22.9h22.898c1.691,0,3.159-1.353,3.159-3.158v-8.911
		C84.38,457.249,83.026,455.895,81.334,455.895z"/>
	<path fill="#FFFFFF" d="M43.158,410.77v-71.214H17.724v-14.501h68.116v14.501H60.466v71.214H43.158z"/>
	<path fill="#FFFFFF" d="M111.565,410.77v-85.715h36.428c9.161,0,15.815,0.77,19.968,2.309c4.15,1.54,7.475,4.279,9.969,8.215
		c2.494,3.937,3.741,8.439,3.741,13.507c0,6.432-1.891,11.743-5.672,15.934c-3.778,4.19-9.434,6.831-16.957,7.922
		c3.743,2.184,6.832,4.581,9.269,7.192c2.437,2.612,5.72,7.25,9.853,13.916l10.465,16.722h-20.696l-12.514-18.65
		c-4.443-6.666-7.483-10.866-9.122-12.6c-1.636-1.734-3.373-2.924-5.202-3.568c-1.833-0.642-4.737-0.965-8.714-0.965h-3.509v35.784
		L111.565,410.77L111.565,410.77z M128.872,361.304h12.806c8.304,0,13.488-0.35,15.553-1.052c2.065-0.702,3.684-1.909,4.853-3.625
		c1.171-1.715,1.755-3.86,1.755-6.432c0-2.885-0.77-5.213-2.308-6.987c-1.54-1.774-3.714-2.894-6.521-3.362
		c-1.402-0.195-5.613-0.291-12.63-0.291h-13.507L128.872,361.304L128.872,361.304z"/>
	<path fill="#FFFFFF" d="M291.415,410.77H272.59l-7.484-19.47h-34.264l-7.073,19.47h-18.361l33.386-85.715h18.302L291.415,410.77z
		 M259.551,376.857l-11.811-31.808l-11.577,31.808H259.551z"/>
	<path fill="#FFFFFF" d="M337.457,410.77l-30.638-85.715h18.771l21.688,63.439l20.992-63.439h18.36l-30.697,85.715H337.457z"/>
	<path fill="#FFFFFF" d="M412.445,410.77v-85.715h63.553v14.501h-46.244v19.001h43.031v14.443h-43.031v23.329h47.883v14.441H412.445
		z"/>
	<path fill="#FFFFFF" d="M513.185,410.77v-85.014h17.305v70.572h43.035v14.441H513.185L513.185,410.77z"/>
	<path fill="#FFFFFF" d="M95.024,497.182v-67.483h13.739v56.021h34.159v11.464L95.024,497.182L95.024,497.182z"/>
	<path fill="#FFFFFF" d="M163.705,497.182v-68.043h50.451v11.511H177.44v15.086h34.165V467.2H177.44v18.518h38.017v11.464H163.705z"
		/>
	<path fill="#FFFFFF" d="M253.319,497.182v-68.043h13.739v68.043H253.319z"/>
	<path fill="#FFFFFF" d="M303.134,475.042l13.369-1.299c0.805,4.487,2.437,7.782,4.896,9.887c2.459,2.104,5.778,3.157,9.954,3.157
		c4.425,0,7.759-0.936,10.002-2.81c2.244-1.871,3.363-4.062,3.363-6.568c0-1.609-0.472-2.977-1.412-4.106
		c-0.947-1.129-2.594-2.113-4.944-2.947c-1.606-0.556-5.275-1.548-11.002-2.972c-7.364-1.824-12.53-4.067-15.499-6.729
		c-4.177-3.745-6.269-8.31-6.269-13.692c0-3.466,0.982-6.71,2.947-9.723c1.967-3.019,4.797-5.315,8.491-6.894
		c3.701-1.575,8.166-2.365,13.395-2.365c8.541,0,14.968,1.867,19.286,5.612c4.313,3.744,6.583,8.743,6.798,14.992l-13.739,0.604
		c-0.587-3.495-1.848-6.013-3.781-7.541c-1.934-1.533-4.835-2.299-8.703-2.299c-3.992,0-7.116,0.819-9.376,2.462
		c-1.454,1.051-2.182,2.457-2.182,4.223c0,1.609,0.68,2.982,2.042,4.129c1.734,1.456,5.943,2.971,12.625,4.55
		c6.683,1.576,11.627,3.211,14.83,4.896c3.202,1.687,5.709,3.99,7.516,6.917c1.812,2.924,2.716,6.536,2.716,10.837
		c0,3.899-1.077,7.551-3.245,10.954c-2.167,3.402-5.229,5.933-9.189,7.591c-3.96,1.651-8.896,2.48-14.809,2.48
		c-8.601,0-15.206-1.987-19.816-5.965C306.786,488.446,304.031,482.654,303.134,475.042z"/>
	<path fill="#FFFFFF" d="M374.273,429.139h13.738v36.854c0,5.847,0.174,9.639,0.515,11.371c0.585,2.787,1.988,5.019,4.199,6.708
		c2.211,1.686,5.235,2.526,9.071,2.526c3.898,0,6.839-0.796,8.818-2.391c1.979-1.592,3.172-3.55,3.572-5.868
		c0.406-2.321,0.605-6.176,0.605-11.558v-37.645h13.737v35.741c0,8.168-0.37,13.938-1.113,17.312
		c-0.741,3.372-2.112,6.216-4.107,8.539c-1.997,2.318-4.664,4.168-8.007,5.546c-3.342,1.376-7.705,2.062-13.087,2.062
		c-6.5,0-11.428-0.748-14.783-2.25c-3.356-1.5-6.012-3.45-7.961-5.847c-1.948-2.398-3.233-4.913-3.851-7.544
		c-0.896-3.898-1.35-9.652-1.35-17.266v-36.294H374.273z"/>
	<path fill="#FFFFFF" d="M441.422,497.182v-68.043h28.915c7.271,0,12.557,0.612,15.853,1.833c3.293,1.226,5.931,3.397,7.91,6.521
		c1.983,3.126,2.971,6.7,2.971,10.721c0,5.109-1.498,9.324-4.501,12.65c-2.998,3.327-7.486,5.42-13.458,6.289
		c2.97,1.73,5.42,3.635,7.354,5.709c1.938,2.073,4.543,5.755,7.823,11.044l8.308,13.274h-16.43l-9.933-14.807
		c-3.527-5.29-5.943-8.624-7.243-10.002c-1.301-1.375-2.677-2.319-4.129-2.831c-1.454-0.509-3.761-0.764-6.915-0.764h-2.786v28.402
		h-13.739V497.182z M455.16,457.919h10.165c6.589,0,10.704-0.281,12.346-0.839c1.643-0.556,2.924-1.517,3.854-2.876
		c0.927-1.363,1.393-3.063,1.393-5.105c0-2.289-0.61-4.138-1.834-5.547c-1.222-1.408-2.944-2.297-5.174-2.67
		c-1.113-0.151-4.458-0.232-10.025-0.232H455.16V457.919z"/>
	<path fill="#FFFFFF" d="M516.741,497.182v-68.043h50.451v11.511H530.48v15.086h34.159V467.2H530.48v18.518h38.011v11.464H516.741z"
		/>
</g>
</svg>
